<svg width="30" height="30" viewBox="0 0 30 30" fill="none" xmlns="http://www.w3.org/2000/svg">
    <title>Sonder App Logo</title>
    
    <!-- Sonder "S" Design -->
    <path d="M8 10 C8 6, 12 6, 15 6 C18 6, 22 6, 22 10 C22 12, 20 13, 18 13 C16 13, 14 12, 14 10" 
          stroke="url(#paint0_linear_sonder)" stroke-width="2.5" stroke-linecap="round" stroke-linejoin="round" fill="none"/>
    
    <path d="M22 20 C22 24, 18 24, 15 24 C12 24, 8 24, 8 20 C8 18, 10 17, 12 17 C14 17, 16 18, 16 20" 
          stroke="url(#paint0_linear_sonder)" stroke-width="2.5" stroke-linecap="round" stroke-linejoin="round" fill="none"/>
    
    <!-- Connecting line -->
    <path d="M15 13 L15 17" 
          stroke="url(#paint0_linear_sonder)" stroke-width="2.5" stroke-linecap="round"/>
    
    <defs>
    <linearGradient id="paint0_linear_sonder" x1="15" y1="0" x2="15" y2="30" gradientUnits="userSpaceOnUse">
    <stop stop-color="#DD7EFF"/>
    <stop offset="0.461458" stop-color="#685DFF"/>
    <stop offset="1" stop-color="#2152FF"/>
    </linearGradient>
    </defs>
</svg>